<?xml version='1.0' encoding='utf-8'?>
<svg xmlns="http://www.w3.org/2000/svg" enable-background="new 0 0 1369.219 1676.198" version="1.1" viewBox="0 0 1369.2 1676.2"> <polygon points="273.32 38.397 273.19 38.099 272.72 38.397" fill="none"/> <path d="m202.22 529.02 0.717 12.761 7.628 9.975-5.204 37.384c-1.171 3.525-2.5 6.346-4.021 9.254h989.15l-0.034-80h-990.37l2.135 10.626z" fill="#fff"/> <path d="m272.65 1158.4h996.46c0.117-0.15 0.208-0.267 0.244-0.322 1.328-1.991 3.498-3.864 5.114-5.481 2.72-4.092 5.627-8.215 9.12-11.574l-0.232-11.16-38.247-51.464h-1114.3l141.89 80.001z" fill="#fff"/> <path d="m250.31 52.837-4.667-6.92-97.258 37.563-45.04 22.826-65.137 65.78 5.386 3.685c2.179 1.935 4.079 3.672 5.204 6.2 0.261 0.585 3.055 5.177 1.884 5.572 0 0.788-1.345 1.203-1.345 2.247 0 1.221 0.755 1.756 1.345 2.695 1.014 1.609 3.32 1.992 3.32 3.954 0 4.109 5.938 8.268-3.409 8.268l-0.09 0.09c0 3.444 1.136 5.392 4.755 5.392 0.693 1.038 2.645 1.583 3.588 2.786l3.859 2.067-1.615 10.334-4.755 2.966-0.359 3.954 20.367-4.044 0.27 8.896c-0.142 0.426-2.738-0.179-3.23-0.179-1.224 0-2.966-0.12-4.038 0.359-1.055 0.471-4.464 4.579-1.794 5.122 0.785 0.16 4.362 0.057 4.396 0.36 0.231 2.049-0.403 3.88-2.512 4.403v0.18c3.234 0 4.621-2.427 6.819-2.606 3.761-0.307 3.895 1.473 6.011 3.594 4.393 4.404 8.613 5.946 8.613 12.581 0.762 0 2.852-4.93 3.499-5.751 2.168-2.748 3.535-1.887 6.819-1.887 5.613 0 7.963 12.622 15.522 10.424l-1.077 18.871c0 4.256-0.95 10.784-6.281 10.784-1.514 0-3.134-0.359-4.396-0.359 0 2.751 5.966 6.937 3.947 9.975-0.811 1.222-2.001 1.156-2.423 2.247-0.545 1.406-0.142 5.153-0.269 6.739 1.859 5.133 6.557 8.268 7.985 14.019 0.865 3.486-0.491 16.567 1.256 18.512 2.471 2.75 5.261 2.549 7.536 6.111 0.414 0.648 2.978-0.695 4.307-0.629 5.148 0.255 8.245 9.184 6.998 13.48 0.433 3.262 1.679 7.248 3.499 9.885 2.218 3.216 1.077 5.22 1.077 8.987 0 2.58 1.228 3.117 1.525 4.313 4.327 1.072 6.374 5.249 7.357 9.166 0.173 0.043 0.227 0.097 0.269 0.27 1.836 0 4.365 0.809 6.46 0.809 2.086 0 1.357-2.156 3.589-1.348 1.833 0.663 6.317 5.253 6.819 7.279 0.378 0.054 1.787 0.326 1.884 0.719 3.592 0.905 3.497 17.308 1.525 20.129l12.469 19.674c2.098 1.454 4.859 2.241 5.204-1.168 0.283-2.806 3.164-0.026 3.768 0.719 1.468 1.813 1.795 8.307 1.795 10.784 5.17 1.282 3.581 4.029 5.473 8.268 1.068 2.395-4.859 7.168-6.462 8.987l9.529 47.426h990.37l-0.049-115.54 56.149-55.593 91.543-133.46c-1.808 1.267-3.223-0.195-5.577 0.425-8.367 2.205-12.211-1.11-20.635-2.876-5.753-1.206-8.31 4.52-14.355 2.337-3.51-1.268-11.097-0.809-14.983-0.809-2.802 0-5.216 3.747-7.357 2.786-4.223-1.897-3.507-0.704-7.716 0-6.054 1.013-5.829 1.822-10.946 0.09-4.069-1.377-6.494 3.739-9.6 3.146-8.543-1.634-11.809-4.598-20.277-0.36-3.746 1.875-9.677-2.698-12.65-4.763-4.28-2.973-9.871-8.716-13.459-12.581-2.06-2.22-1.641-5.668-4.575-6.92-5.473-2.337-6.664-4.95-11.394-8.088-2.248-1.491-5.195-1.659-7.627-3.055-2.481-1.424-3.824-4.041-5.114-6.38-2.594-4.704-3.468-10.164-9.062-11.772-3.357-0.965-5.33-1.737-6.759-3.384l-5.62 0.777-3.41 5.212-6.281 0.18-78.775 33.429-3.948-0.18-0.897 2.876-51.5 26.6-15.432 32.171-31.402 28.936-4.577 14.918-7.716-1.528c-1.67-2.097-1.535-6.213-3.32-7.998-1.162-1.161-3.611 0.809-5.114 0.809-6.028 0-12.615-2.332-19.021-1.348-4.082 0.627-1.705-3.852-1.705-6.111-2.095 0-3.403 2.473-5.025 3.595-1.606 1.112-5.172 0.629-7.177 0.629-4.271 0-11.182 1.35-12.292-3.146-2.857 0-12.959-3.777-15.163-5.751-7.834-7.02-3.187 8.326-7.985 0.539-0.747-1.213-3.353 2.179-4.576 1.797-1.774-0.554-2.016-1.528-4.396-1.528-5.771 0-6.635 2.873-13.817 1.977l-28.98-8.807c-3.331-1.672-2.849-3.196-4.487-5.482-1.198-1.67-1.936-4.171-4.307-3.774-0.137 0.969-1.403 3.402-1.794 4.493-0.421 1.172-2.831 0.718-3.768 0.718-2.84 0-6.49-0.19-9.241-0.718-2.709-0.52-2.61-1.309-4.127-3.415-1.164-1.617-3.301-4.547-4.217-6.38-0.614 0-3.881 0.99-3.947 1.258-0.384 0.064-0.013 5e-3 -0.27 0.09-0.289 1.167 1.231 2.464 1.705 3.594l-10.587 3.235-44.681-2.516-8.569 2.336-12.201-9.526-7.312-9.48-5.652-2.741-135.84-89.595c-5.41-1.697-6.045-7.451-10.408-10.155-1.242-0.77-2.646-0.626-3.768-1.437-1.396-1.008-1.815-2.344-2.781-3.685-1.796-2.495-3.757 0.526-5.742 0-1.153-0.306-2.722-1.97-3.409-2.067-0.149-1.056-4.72-1.437-5.652-1.618l-17.493-7.549-28.621 0.09c-2.183-0.329-3.574-1.155-5.518-1.842-1.89-0.669-4.877 0.446-6.683 1.033-1.293 0.421-2.627 0.585-3.951 0.809l-88.196-1.797-16.777-15.547 3.768-3.145-0.09-2.336-3.679-0.18 1.075-7.279-26.825-0.449-0.359-7.908-2.512-1.348-9.241 3.235-1.166 13.21-17.945-6.47-12.471-26.689 7.716-17.074 0.538-3.415-12.561-1.887-16.509 0.988 5.922-14.648-1.927-4.195h-0.6l-22.416 14.44z"/> <path d="m61.176 936.56c-2.446 0 0.485 3.491 1.884 3.055 1.151-0.359 0.805-1.119 1.436-1.618 0.922-0.728 1.45 1.388 2.064 1.798 0.896 0.596 2.241-0.435 2.692-1.258 0.509-0.925 0.301-2.522 2.064-2.067 1.518 0.39 1.984-0.432 2.871-1.528 1.086-1.343 2.191-1.696 2.692-3.505 0.454-1.639 0.416-4.207-0.09-5.751h-0.179c-0.265 1.056-0.987 1.874-0.987 3.146 0 1.215-0.156 1.732-0.718 2.696l-0.72-0.54c-2.945 0.8-3.804 0.067-5.652-1.977-2.641-2.921-1.861 4.616-1.884 4.673-0.811 1.942-3.437 2.876-5.473 2.876z" fill="#b00"/> <path d="m33.992 942.13c-0.44 0.393-2.865 1.502-2.871 1.528 1.579 0.391 3.626 1.333 5.293 1.888 1.028 0.343 2.33 0.92 3.41 1.528l0.358 1.257c1.92 0.146 3.169 0.472 4.846-0.27 0.649-0.288 0.962-0.846 1.973-0.989 2.198-0.311 4.459-0.783 3.589-3.415-0.355-1.073-1.197-2.99-1.794-3.954-1.428-2.309-0.929-2.85-3.499-1.168-2.304 1.51-6.319 3.813-8.613 1.707-1.156-1.061-1.996 1.267-2.692 1.888z" fill="#b00"/> <path d="m40.24 889.88s1.301 0.27 1.3 0.27c0.81-0.046 1.603-0.385 2.422-0.314 0.515 0.044 1.052 0.135 1.571 0.135 0.517 0 1.874 0.076 2.108-0.449 0.109-0.243-0.162-0.722-0.359-0.854-0.612-0.407-1.984 0-2.692 0-1.27 0-2.219 0.109-3.409-0.315-0.349-0.124-0.967-0.133-1.301 0.045-0.311 0.165-1.031 0.659-1.031 1.033 0 0.649 0.99 0.621 1.391 0.449z" fill="#b00"/> <path d="m199.17 602.44c-1.927 3.558-5.189 5.143-7.985 7.728-1.564 1.446-3.578 1.262-5.025 2.337-3.49 2.595-4.287 6.526-5.383 10.424-1.212 2.678-0.555 5.513-1.615 7.908-0.912 2.059-7.303-0.349-8.433 1.078-1.092 1.379-1.091 2.157-3.589 2.157 0 0.658 1.03 2.528 1.705 2.695 0 2.79 2.846 8.419 4.934 10.514 2.743 2.751 5.031 6.102 3.948 10.334-3.781 14.778-18.971 6.146-27.455 11.952l-9.062 6.201c-7.217 0.796-4.499 9.705-10.677 9.705-4.919 0-8.882 11.355-8.882 15.726 0 2.712-1.326 11.497-2.602 13.659-1.365 2.31-3.643 3.878-4.934 6.47-1.716 3.443 0.236 3.431-3.14 6.111-3.832 3.043-1.669 3.324-2.512 7.009-0.517 2.259-5.762 0.475-7.536 2.606-3.569 4.29-8.745 3.158-8.344 8.268 0 2.834 1.38 6.045-1.435 7.908-2.04 1.348-4.487 2.114-4.487 4.853 0 4.886-5.583 5.841-9.51 5.841-4.878 0-4.008 1.628-6.191 4.404-3.403 4.329-6.871-1.643-8.792 6.38-0.562 2.35-0.699 12.708-1.974 13.839-2.732 2.421-4.845 1.204-4.845 6.29 0 3.92 3.769 5.726 3.32 9.886-0.673 6.216-4.181 6.369-7.716 9.615-3.376 3.101-2.597 8.281-7.268 10.693l-2.954 3.271c0.561 0.278 1.144 0.5 1.698 0.684v0.36c0.342 0.113-0.816 3.069-0.897 3.774-0.17 1.487-1.87 3.894-2.423 5.571-0.329 0.994-0.682 1.551-0.09 2.516 0.219 0.358 1.229 1.542 0.359 1.977 0 0.489-0.793 0.911-0.987 1.348-0.337 0.756-0.24 1.597-0.359 2.427-0.068 2.349-0.678 3.51-3.23 4.224-3.899 1.089-2.462 6.161 0.629 7.458 5.496 2.308 3.333 10.432 6.998 14.109 2.899 2.907 4.646-0.066 7.088-0.27 1.42-0.119 1.108 1.523 0.449 2.157l-2.333 2.247c-0.448 0-0.94 0.259-1.345 0.359 0 0.912-0.214 1.468 0.09 2.696 1.983 0 7.268-2.557 7.268 0.809-0.558 0.14-1.438 1.191-2.064 1.348 0 0.289-0.284 0.719 0.09 0.719 1.194 4.816 4.379-5.751 5.294-5.751 0 3.274 4.573 0.561 6.281 0.989 0 1.169 1.427 2.839 0.448 3.325-1.216 0.603-3.768 1.55-3.768 3.415l4.217 0.27c0.988 2.98-1.41 1.078-2.96 1.078-1.186 4.783-9.011 1.575-3.051 7.548 1.97 1.976 4.64 5.876 6.46 7.279 1.339 1.031 5.145-2.067 7.088-0.719 1.514 1.049 2.996 6.937 3.948 7.548 1.558 1.002 11.123-2.945 8.075 4.404-1.003 1.322-2.602 0.945-2.602 2.875 5.876 1.481 0.755 5.123 4.307 7.908 1.767 1.387 5.58 3.62 4.755 6.111h-0.179c-0.046 0.134-1.013 0.27-1.077 0.27-0.511 1.517-2.219 0.65-0.18 2.966 2.267 2.575 3.654-2.848 5.742-4.404 1.415-1.055 2.876-3.421 4.307-4.852 1.374-1.374 2.586-2.952 3.947-4.313 1.375-1.376 4.921-3.531 4.127-5.841-0.739-2.148-1.091-4.893-1.615-7.009-1.476 0-3.064-0.071-4.575-0.539-3.981-1.234-2.693-1.188-3.41-5.033 1.694-0.273 9.329-5.972 10.587-0.898 0.212 0 0.268 0.046 0.449 0.09 2.641-7.965 10.784-3.002 14.894-1.617 0 8.491 2.523 0.531 4.845-1.797 1.618-1.623 4.064-5.032 6.549-5.032 2.319 0 7.099 1.166 8.883 0.718 0-3.436 7.538-7.381 10.228-7.818 1.233-0.2 4.887 0.77 5.562-0.09 1.288-1.637 2.285-2.876 4.487-2.876l0.09 0.09c0 2.702-1.402 7.279-2.692 9.615-1.312 2.377 6.034 3.833 7.177 4.404 1.848 0.925 5.294 9.083 6.639 11.412 1.417 2.456 7.268 3.905 7.268 6.56 0.152 0.051 0.09 0.265 0.09 0.449-2.055 0.68-3.056 5.392-5.742 5.392-0.768 2.278-4.446-2.899-5.384-3.235-1.04-0.372-1.878 0.139-2.781 0.449-0.658 0.227-3.499 0.242-3.499 0.899-1.594 0.528 2.737 1.663 2.871 1.708 0 6.181-4.554 5.482-9.331 5.482-4.608 0-20.402 2.065-23.328-1.618-2.679-3.373-9.226-0.68-12.83 0.539-7.282 2.463-6.005 3.119-8.254 9.886 2.318 3.993 4.325 6.087 7.626 9.076 0.935 0.847 3.847 2.562 3.23 3.954-1.483 3.351-11.341 8.447-14.894 8.447-0.53-1.597-0.024-3.93-1.077-5.391-1.228-1.707-1.525-2.236-1.525-4.313 0.456-0.153-0.311-1.654-0.359-1.797h-0.179c-0.045-0.135-3.843-1.258-4.307-1.258l-0.09 0.09v0.27c-0.173 0.058-0.09 1.239-0.09 1.528-1.192 0.394-1.764 2.803-4.307 2.516-0.417-0.046-4.307-3.235-4.397-3.594-0.164-0.041-0.138-0.015-0.179-0.18-3.635 0-1.535 0.65-2.064 2.786-2.738 0-5.423-3.15-6.909-5.302-1.768-2.561-7.669-2.077-10.318-2.966-2.548 3.626-5.676 6.993-7.357 10.873-1.675 3.862 2.288 9.256-3.32 9.256-0.381 1.163-3.422-1.489-4.127-1.258 0 1.966 1.257 3.404-0.807 4.673-0.933 0.573-3.964-0.04-4.307-1.078-0.569 0-3.41 1.216-3.41 1.887 0.393 0.099 3.262 2.374 3.32 2.607 0.931 0.185 2.692 0.372 2.692 1.528-0.574 0.189-2.243 3.739-3.948 4.493-5.77 2.556-3.05 2.507-3.05 7.009 0 1.573-0.987 2.781-0.987 4.493 0 1.684 1.875 2.458 1.615 3.505-1.239 0.313-2.602 1.563-2.602 2.966l0.09 0.09 4.396-0.09c0.839 2.56-0.179 1.975-0.179 4.853l2.961 0.988c0.171 0.696-0.292 0.89-0.449 1.528-1.127 0.278-1.625 3.462-1.346 4.313 1.69 0 6.283-0.089 7.088 1.528 0.058 1.865 2.807 4.996 4.576 5.571 1.736 0.565 3.604 0.449 5.473 0.449 0.89 0 2.349 4.305 1.257 5.032-1.73 1.153-4.945 4.136-6.909 4.313-0.47 1.653-1.795 1.635-1.795 4.583-0.092 0.031-0.234 0.395-0.269 0.539-0.11 0.037-0.143 0.07-0.18 0.18-4.846 1.222-0.431 7.756-0.179 10.245 0.454 4.489-6.563-3.72-6.909-4.763-1.156-0.286-0.661 2.657-0.897 3.594-0.638 0.092-1.47 0.899-2.153 0.899-0.275 0.412-2.099-0.198-2.601 0-0.603 0.237-1.23 1.808-0.18 1.887 3.374 0.254 5.129-0.35 8.255 0.54 0.145 0.729 0.279 1.393 0.09 2.156-0.722 0-1.281 0.039-1.719 0.117l74.439 41.97h1114.3l-54.446-73.259-0.172-406.74h-989.15c-0.684 1.307-1.402 2.631-2.17 4.046z" fill="#b00"/> <path d="m618.89 1353.6 25.474 16.726 6.46 41.158c-1.205 0.145-1.531 0.721-2.422 0.898 0 2.428-3.445 6.024-5.473 7.1-4.41 2.342-6.792 8.272-10.766 11.143-2.118 1.532-1.692 2.629-2.333 4.943-0.268 0.967 5.513 0.155 5.742 1.078h0.179c0 3.654-1.25 4.796-2.512 7.908-2.622 6.463 10.373-2.988 12.292 1.348 0.95 2.144 6.317 1.924 8.075 2.966 2.844 1.684 3.523 5.187 4.217 8.177l5.742 15.187 234.47 165.86c0.864-1.914 2.615-4.89 3.82-5.193 0.066-0.267 0.262-0.501 0.538-0.539 0-2.804 4.8-6.202 5.562-10.065 0.384 0 2.463 2.946 2.602 3.505 0.285 0.07 0.269 0.27 0.628 0.27 0.037-0.11 0.07-0.143 0.18-0.18 0-0.765 1.068-4.507 1.615-2.336 3.748 0.945-3.273 7.998 5.383 7.998 3.594 0 12.935 2.789 12.561-2.966-0.226-3.48-4.434-6.56-3.768-9.256 4.061 0 6.281 3.73 6.281-4.852l0.09-0.09c2.415 0-1.538 8.074 1.256 8.537 2.27 0.376 3.669-5.676 4.217-7.459 3.274-10.653 5.773-15.237 13.099-23.904 1.436-1.7 9.241-19.676 9.241-21.656 0-0.841-1.148-3.827-1.077-3.865 2.397-1.323 3.193-0.284 3.499-3.774l3.499-9.435c1.044-2.815 3.914-5.857 5.742-8.357 3.889-5.316 0.656-9.346-5.473-9.346-5.056 0-10.856 3.213-10.856-4.044 1.128-0.28 11.603 2.336 14.624 2.336 0.441-1.785-0.718-3.154-0.718-4.852 0.312 0 0.513 0.09 0.718 0.09 0.522 2.114 1.256 1.807 1.256 4.583 1.09 0.273 0.197 3.852 3.051 3.415 2.107-0.321 3.594-2.754 4.666-4.493 3.164-5.129 3.72-9.575 8.523-14.378 2.963-2.963 4.098-7.166 6.19-10.783 3.502-6.055 4.134-11.984 6.639-18.332 3.091-5.737 4.307-12.051 4.307-18.422 0-0.551 0.292-3.657-0.179-3.774-0.361-1.46-8.362-0.997-9.151-1.258 0-0.821 0.449-1.475 0.449-2.247 0.2-0.048 0.269-0.24 0.269-0.449 0.19-0.08 0.579-0.21 0.628-0.359 1.113 0 2.158-0.36 3.32-0.36 4.105 6.209 5.785-0.578 8.254-4.583 3.163-5.13 4.904-12.653 7.177-18.242l4.934-12.131c0.979-2.408 3.551-2.823 4.935-4.673 8.514-6.402 18.16-8.183 21.891-19.23 1.973-5.841-1.702-12.331 2.243-17.703 1.904-2.591 5.081-6.216 3.051-9.615-1.523-2.549 3.851-9.685 5.473-12.042 0.881-0.44 1.694-1.779 2.512-2.426 0.759-0.599 1.737-1.281 2.512-1.977 0.456-0.411 5.73-3.505 2.422-3.505v-0.27c-1.332 0.441-2.072 0.734-2.96 1.887-0.542 0.704-1.668 2.074-2.871 2.337-0.612 0.134-1.843 0.375-2.332 0.809-0.422 0.375-3.104 2.638-3.499 2.067-1.018-1.468-0.26-2.651 0.629-4.044 0.511-0.8 1.335-0.664 1.973-1.168 0.606-0.481 1.708-1.312 0.987-1.887-1.126-0.899-2.134-1.695-3.14-3.055-0.649-1.952 0.394-7.253-1.884-7.818 0-3.392 7.459-18.251 2.781-19.41 0-9.122 15.874-24.847 23.596-28.666 10.052-4.971 25.558-18.894 37.951-11.592 6.336 3.734 13.178 4.694 17.226-2.696 4.933-5.23 11.668-10.702 18.752-12.401 3.225-0.774 1.462-0.781 2.243-3.055 0.542-1.579 3.804-2.6 5.114-4.134 3.332-3.899-0.107-5.896-0.718-9.255-1.21-0.945-12.381-6.32-12.381-6.83 3.682 0 6.426 1.707 9.51 1.707 0-2.564-4.666-5.113-4.666-8.716 0-2.823 3.949 5.151 4.217 6.2 0.489 1.917 3.388 0.937 2.512-1.348-2.08-5.42 3.752-5.915 1.615-2.427-1.264 2.062-0.808 8.627 2.064 8.627 0.245-1.492 5.862-3.97 7.357-4.584 3.869-1.589 5.234 0.274 4.934-3.414-0.027-0.336-2.588-5.921-0.718-4.404 0.798 0.648 3.553 5.189 3.32 6.021-0.269 0.966-2.255 4.195-0.897 4.583 1.374 0.393 3.777 0.847 4.934-0.09 2.874-2.329 6.401-4.912 7.088-9.076 1.735-10.516-8.863-4.348-10.946-10.154-0.951-2.649 0.538-8.81 0.538-11.862 0-6.948-1.038-10.676-2.961-16.894-0.998-3.225 0.095-3.892-3.858-4.763-2.397-0.527-6.043-2.054-7.536-4.133-0.768-1.068 9.309 3.325 11.394 3.325 0.043 0.171 0.531 0.493 0.718 0.539 0 1.449-0.048 4.897 0.449 6.201 0.624 1.642 3.874 3.44 3.767 5.122-0.264 4.15 7.385 3.642 7.716 0.359 0.537-5.31 0.032-1.31-2.153-4.852-1.297-2.104-1.19-7.191-1.525-9.795 0.643-1.935 2.283-8.064 4.127-8.986 0.077-0.396 0.663-1.547 0.987-1.708 0.127-0.644 1.164-1.241 1.345-1.977l0.09-0.09c0.884 0-0.966 4.84-1.345 5.391-0.765 1.114-1.705 4.783-1.705 6.29 0 1.456 0.858 2.568 0.539 4.224-0.513 2.655-0.255 4.283 0.807 6.56 1.551 3.323 5.165 0.849 7.357 0.539 0.155-0.548 1.388-1.072 1.525-1.617 0.448-0.112 3.747-4.113 4.307-4.673 1.222-1.223-0.548-3.415 2.153-3.415 2.559 0 10.293-3.637 11.484-6.02 0.823-0.166 1.069-0.725 1.436-1.438 1.241-0.71 0.979-1.927 2.512-2.516 1.261-0.485 2.525-0.44 3.858-1.078 4.021-1.921 4.731 1.318 8.075 1.707 1.015 0.118-1.256 3.437-1.256 4.404 1.779 0.441 1.688-0.09 3.499-0.449 0.793-3.939 2.724-0.214 3.589 0 0 1.34-2.007 8.576 1.077 5.482 2.037-2.044 5.82-4.831 7.268-7.099 1.801-2.82 14.265-13.716 14.265-15.277 0-1.95 1.705-3.061 1.705-3.864h0.18c0.444-1.791 13.319-9.082 5.114-6.111-1.286 0.466 0.419-1.681 1.102-2.554h-996.46l346.24 195.21z" fill="#060"/> <path d="m1198 1217.9c2.634-1.759 4.666 1.85 6.011-1.797 0.663-1.798 2.147 1.085 2.423 1.707 0.612 1.374 3.811-0.041 4.396-0.989 0.378-0.613 1.169-5.697 2.153-3.774 0.707 1.382-0.048 5.213 2.692 3.595 2.998-1.769 1.22-4.167 2.692-6.381 1.153-1.736-5.799-4.21-7.178-5.482-3.869-3.568-7.285 0.267-10.766 2.247l-7.267 4.134c-1.801 1.025-3.855-0.457-4.666 2.067-0.896 2.788 0.593 4.318-2.153 6.381-2.153 1.617 0.776 4.484 2.692 4.044l1.254 1.797c1.17 0.731 0.562 4.631 2.872 3.594 0.596-0.268 1.766-2.394 1.435-3.055-0.345-0.692-1.598-0.261-2.063-0.989-3.32-5.198 1.741-4.605 5.473-7.099z" fill="#060"/> <path d="m446.29 1235.1 14.42 8.325 388.9-673.6c22.745-6.095 35.233-27.724 47.721-49.354 8.325-14.42 41.627-72.1 56.059-147.05-57.692 49.974-90.994 107.65-99.319 122.07-12.488 21.63-24.976 43.26-18.881 66.005l-388.9 673.6z"/> <path d="m446.29 1235.1 14.42 8.325 388.9-673.6c22.745-6.095 35.233-27.724 47.721-49.354 8.325-14.42 41.627-72.1 56.059-147.05-57.692 49.974-90.994 107.65-99.319 122.07-12.488 21.63-24.976 43.26-18.881 66.005l-388.9 673.6z" fill="#fff"/> <path d="m922.15 1235.1-14.42 8.325-388.9-673.6c-22.745-6.095-35.233-27.724-47.721-49.354-8.325-14.42-41.627-72.1-56.059-147.05 57.692 49.974 90.994 107.65 99.319 122.07 12.488 21.63 24.976 43.26 18.881 66.005l388.9 673.6z"/> <path d="m922.15 1235.1-14.42 8.325-388.9-673.6c-22.745-6.095-35.233-27.724-47.721-49.354-8.325-14.42-41.627-72.1-56.059-147.05 57.692 49.974 90.994 107.65 99.319 122.07 12.488 21.63 24.976 43.26 18.881 66.005l388.9 673.6z" fill="#fff"/> <path d="m526.04 1039.4c24.976 66.603 108.23 199.81 158.18 199.81s133.21-133.21 158.18-199.81v-399.62c-24.977-66.603-108.23-199.81-158.18-199.81s-133.21 133.21-158.18 199.81v399.62z" fill="#b00"/> <path d="m842.4 1039.4c24.976-66.603 41.627-133.21 41.627-199.81s-16.651-133.21-41.627-199.81c-24.976 66.603-41.627 133.21-41.627 199.81s16.65 133.21 41.627 199.81z"/> <path d="m526.04 1039.4c-24.976-66.603-41.627-133.21-41.627-199.81s16.651-133.21 41.627-199.81c24.976 66.603 41.627 133.21 41.627 199.81s-16.651 133.21-41.627 199.81z"/> <ellipse cx="684.22" cy="839.62" rx="33.301" ry="49.952" fill="#fff"/> <path d="m692.54 888.32s33.301 66.603 33.301 174.83-33.301 174.83-33.301 174.83v-349.67z" fill="#fff"/> <path d="m675.89 790.91s-33.301-66.603-33.301-174.83 33.301-174.83 33.301-174.83v349.67z" fill="#fff"/> <path d="m675.89 888.32s-33.301 66.603-33.301 174.83 33.301 174.83 33.301 174.83v-349.67z" fill="#fff"/> <path d="m692.54 790.91s33.301-66.603 33.301-174.83-33.301-174.83-33.301-174.83v349.67z" fill="#fff"/> </svg>